# xmcd
#
# Track frame offsets:
#	150
#	14612
#	44489
#	60876
#	87306
#	104096
#	129350
#	148593
#	162988
#	177608
#	197180
#	215149
#	230480
#	258432
#	285657
#	306600
#	325218
#
# Disc length: 4457 seconds
#
# Revision: 2
# Processed by: cddbd v1.5.2PL0 Copyright (c) Steve Scherf et al.
# Submitted via: audiograbber 1.83.01
#
DISCID=0b116711
DTITLE=Bernd Haake and Bands - Durch all die Jahre ...
DYEAR=2001
DGENRE=Blues
TTITLE0=Soul Limbo
TTITLE1=Die Luft ist raus
TTITLE2=Walkman Blues
TTITLE3=Blues vom Blues
TTITLE4=Was soll's - ein Blues
TTITLE5=Amerika Blues
TTITLE6=Dampfwalze
TTITLE7=Sommer '75
TTITLE8=Recht auf Kontrolle
TTITLE9=Hamburg
TTITLE10=N‰gelbrandblues
TTITLE11=Lieber Gott
TTITLE12=Scheiﬂ Montag
TTITLE13=Houston, Texas
TTITLE14=Mama's Blues
TTITLE15=Rote Ratte
TTITLE16=Mitternachtsblues
EXTD=
EXTT0=
EXTT1=
EXTT2=
EXTT3=
EXTT4=
EXTT5=
EXTT6=
EXTT7=
EXTT8=
EXTT9=
EXTT10=
EXTT11=
EXTT12=
EXTT13=
EXTT14=
EXTT15=
EXTT16=
PLAYORDER=
